<svg xmlns="http://www.w3.org/2000/svg" viewBox="0 0 1200 900" width="1200" height="900" role="img"><defs><linearGradient id="g" x1="82.1%" y1="11.7%" x2="17.9%" y2="88.3%"><stop offset="0%" stop-color="#E7E0D3"/><stop offset="100%" stop-color="#9C927F"/></linearGradient><radialGradient id="b" cx="40%" cy="30%" r="70%"><stop offset="0%" stop-color="#FFFFFF" stop-opacity="0.35"/><stop offset="100%" stop-color="#FFFFFF" stop-opacity="0"/></radialGradient><filter id="n" x="0" y="0" width="100%" height="100%"><feTurbulence type="fractalNoise" baseFrequency="1.0" numOctaves="3" seed="7"/><feColorMatrix type="saturate" values="0"/><feComponentTransfer><feFuncA type="linear" slope="0.09"/></feComponentTransfer></filter><linearGradient id="fsheen" x1="0%" y1="0%" x2="62%" y2="100%"><stop offset="0%" stop-color="#FFFFFF" stop-opacity="0.07"/><stop offset="30%" stop-color="#FFFFFF" stop-opacity="0"/><stop offset="100%" stop-color="#000000" stop-opacity="0.15"/></linearGradient><radialGradient id="fvig" cx="40%" cy="32%" r="80%"><stop offset="62%" stop-color="#000000" stop-opacity="0"/><stop offset="100%" stop-color="#000000" stop-opacity="0.13"/></radialGradient></defs><rect width="1200" height="900" fill="url(#g)"/><rect x="60" y="60" width="120" height="120" fill="#2B2D32" opacity="0.26" rx="0"/><rect x="220" y="60" width="120" height="120" fill="#2B2D32" opacity="0.26" rx="22"/><rect x="380" y="60" width="120" height="120" fill="#2B2D32" opacity="0.26" rx="44"/><rect x="540" y="60" width="120" height="120" fill="#2B2D32" opacity="0.26" rx="0"/><rect x="700" y="60" width="120" height="120" fill="#2B2D32" opacity="0.26" rx="22"/><rect x="860" y="60" width="120" height="120" fill="#2B2D32" opacity="0.26" rx="44"/><rect x="1020" y="60" width="120" height="120" fill="#2B2D32" opacity="0.26" rx="0"/><rect x="60" y="220" width="120" height="120" fill="#2B2D32" opacity="0.26" rx="22"/><rect x="220" y="220" width="120" height="120" fill="#2B2D32" opacity="0.26" rx="44"/><rect x="380" y="220" width="120" height="120" fill="#2B2D32" opacity="0.26" rx="0"/><rect x="540" y="220" width="120" height="120" fill="#2B2D32" opacity="0.26" rx="22"/><rect x="700" y="220" width="120" height="120" fill="#2B2D32" opacity="0.26" rx="44"/><rect x="860" y="220" width="120" height="120" fill="#2B2D32" opacity="0.26" rx="0"/><rect x="1020" y="220" width="120" height="120" fill="#2B2D32" opacity="0.26" rx="22"/><rect x="60" y="380" width="120" height="120" fill="#2B2D32" opacity="0.26" rx="44"/><rect x="220" y="380" width="120" height="120" fill="#2B2D32" opacity="0.26" rx="0"/><rect x="380" y="380" width="120" height="120" fill="#2B2D32" opacity="0.26" rx="22"/><rect x="540" y="380" width="120" height="120" fill="#2B2D32" opacity="0.26" rx="44"/><rect x="700" y="380" width="120" height="120" fill="#2B2D32" opacity="0.26" rx="0"/><rect x="860" y="380" width="120" height="120" fill="#2B2D32" opacity="0.26" rx="22"/><rect x="1020" y="380" width="120" height="120" fill="#2B2D32" opacity="0.26" rx="44"/><rect x="60" y="540" width="120" height="120" fill="#2B2D32" opacity="0.26" rx="0"/><rect x="220" y="540" width="120" height="120" fill="#2B2D32" opacity="0.26" rx="22"/><rect x="380" y="540" width="120" height="120" fill="#2B2D32" opacity="0.26" rx="44"/><rect x="540" y="540" width="120" height="120" fill="#2B2D32" opacity="0.26" rx="0"/><rect x="700" y="540" width="120" height="120" fill="#2B2D32" opacity="0.26" rx="22"/><rect x="860" y="540" width="120" height="120" fill="#2B2D32" opacity="0.26" rx="44"/><rect x="1020" y="540" width="120" height="120" fill="#2B2D32" opacity="0.26" rx="0"/><rect x="60" y="700" width="120" height="120" fill="#2B2D32" opacity="0.26" rx="22"/><rect x="220" y="700" width="120" height="120" fill="#2B2D32" opacity="0.26" rx="44"/><rect x="380" y="700" width="120" height="120" fill="#2B2D32" opacity="0.26" rx="0"/><rect x="540" y="700" width="120" height="120" fill="#2B2D32" opacity="0.26" rx="22"/><rect x="700" y="700" width="120" height="120" fill="#2B2D32" opacity="0.26" rx="44"/><rect x="860" y="700" width="120" height="120" fill="#2B2D32" opacity="0.26" rx="0"/><rect x="1020" y="700" width="120" height="120" fill="#2B2D32" opacity="0.26" rx="22"/><rect width="1200" height="900" fill="url(#b)"/><rect width="1200" height="900" filter="url(#n)" opacity="0.45"/><rect width="1200" height="900" fill="url(#fsheen)"/><rect width="1200" height="900" fill="url(#fvig)"/></svg>