<svg xmlns="http://www.w3.org/2000/svg" viewBox="0 0 1200 900" width="1200" height="900" role="img"><defs><linearGradient id="g" x1="62.9%" y1="1.7%" x2="37.1%" y2="98.3%"><stop offset="0%" stop-color="#DFD9CF"/><stop offset="100%" stop-color="#857F74"/></linearGradient><filter id="n" x="0" y="0" width="100%" height="100%"><feTurbulence type="fractalNoise" baseFrequency="1.0" numOctaves="3" seed="7"/><feColorMatrix type="saturate" values="0"/><feComponentTransfer><feFuncA type="linear" slope="0.13"/></feComponentTransfer></filter><radialGradient id="b" cx="34%" cy="24%" r="64%"><stop offset="0%" stop-color="#FFFFFF" stop-opacity="0.3"/><stop offset="100%" stop-color="#FFFFFF" stop-opacity="0"/></radialGradient></defs><rect width="1200" height="900" fill="url(#g)"/><g><rect x="0" y="120" width="1200" height="92" fill="#FFFFFF" opacity="0.5"/><rect x="0" y="120" width="1200" height="6" fill="#0B0B0C" opacity="0.16"/><rect x="0" y="206" width="1200" height="6" fill="#0B0B0C" opacity="0.10"/></g><g><rect x="0" y="270" width="1200" height="92" fill="#FFFFFF" opacity="0.5"/><rect x="0" y="270" width="1200" height="6" fill="#0B0B0C" opacity="0.16"/><rect x="0" y="356" width="1200" height="6" fill="#0B0B0C" opacity="0.10"/></g><g><rect x="0" y="420" width="1200" height="92" fill="#FFFFFF" opacity="0.5"/><rect x="0" y="420" width="1200" height="6" fill="#0B0B0C" opacity="0.16"/><rect x="0" y="506" width="1200" height="6" fill="#0B0B0C" opacity="0.10"/></g><g><rect x="0" y="570" width="1200" height="92" fill="#FFFFFF" opacity="0.5"/><rect x="0" y="570" width="1200" height="6" fill="#0B0B0C" opacity="0.16"/><rect x="0" y="656" width="1200" height="6" fill="#0B0B0C" opacity="0.10"/></g><g><rect x="0" y="720" width="1200" height="92" fill="#FFFFFF" opacity="0.5"/><rect x="0" y="720" width="1200" height="6" fill="#0B0B0C" opacity="0.16"/><rect x="0" y="806" width="1200" height="6" fill="#0B0B0C" opacity="0.10"/></g><rect width="1200" height="900" fill="url(#b)"/><rect width="1200" height="900" filter="url(#n)" opacity="0.55"/></svg>