<svg xmlns="http://www.w3.org/2000/svg" viewBox="0 0 1200 900" width="1200" height="900" role="img"><defs><linearGradient id="g" x1="73.5%" y1="5.9%" x2="26.5%" y2="94.1%"><stop offset="0%" stop-color="#2A2622"/><stop offset="100%" stop-color="#0C0B0A"/></linearGradient><radialGradient id="b" cx="62%" cy="26%" r="78%"><stop offset="0%" stop-color="#C9B18A" stop-opacity="0.3"/><stop offset="100%" stop-color="#C9B18A" stop-opacity="0"/></radialGradient><filter id="n" x="0" y="0" width="100%" height="100%"><feTurbulence type="fractalNoise" baseFrequency="0.8" numOctaves="3" seed="7"/><feColorMatrix type="saturate" values="0"/><feComponentTransfer><feFuncA type="linear" slope="0.14"/></feComponentTransfer></filter><linearGradient id="fsheen" x1="0%" y1="0%" x2="62%" y2="100%"><stop offset="0%" stop-color="#FFFFFF" stop-opacity="0.07"/><stop offset="30%" stop-color="#FFFFFF" stop-opacity="0"/><stop offset="100%" stop-color="#000000" stop-opacity="0.15"/></linearGradient><radialGradient id="fvig" cx="40%" cy="32%" r="80%"><stop offset="62%" stop-color="#000000" stop-opacity="0"/><stop offset="100%" stop-color="#000000" stop-opacity="0.13"/></radialGradient></defs><rect width="1200" height="900" fill="url(#g)"/><rect x="0" y="60" width="126" height="740" fill="#FFFFFF" opacity="0.07" stroke="#FFFFFF" stroke-opacity="0.18" stroke-width="2"/><rect x="150" y="100" width="126" height="660" fill="#FFFFFF" opacity="0.12" stroke="#FFFFFF" stroke-opacity="0.18" stroke-width="2"/><rect x="300" y="140" width="126" height="580" fill="#FFFFFF" opacity="0.16" stroke="#FFFFFF" stroke-opacity="0.18" stroke-width="2"/><rect x="450" y="60" width="126" height="740" fill="#FFFFFF" opacity="0.21" stroke="#FFFFFF" stroke-opacity="0.18" stroke-width="2"/><rect x="600" y="100" width="126" height="660" fill="#FFFFFF" opacity="0.07" stroke="#FFFFFF" stroke-opacity="0.18" stroke-width="2"/><rect x="750" y="140" width="126" height="580" fill="#FFFFFF" opacity="0.12" stroke="#FFFFFF" stroke-opacity="0.18" stroke-width="2"/><rect x="900" y="60" width="126" height="740" fill="#FFFFFF" opacity="0.16" stroke="#FFFFFF" stroke-opacity="0.18" stroke-width="2"/><rect x="1050" y="100" width="126" height="660" fill="#FFFFFF" opacity="0.21" stroke="#FFFFFF" stroke-opacity="0.18" stroke-width="2"/><rect x="0" y="780" width="1200" height="120" fill="#0B0B0C" opacity="0.22"/><rect width="1200" height="900" fill="url(#b)"/><rect width="1200" height="900" filter="url(#n)" opacity="0.6"/><rect width="1200" height="900" fill="url(#fsheen)"/><rect width="1200" height="900" fill="url(#fvig)"/></svg>